<svg width="24" height="24" viewBox="0 0 24 24" fill="none" xmlns="http://www.w3.org/2000/svg">
<path d="M16.4421 7.45757C16.4421 6.90528 16.8898 6.45757 17.4421 6.45757C17.9944 6.45757 18.4421 6.90528 18.4421 7.45757C18.4421 8.00985 17.9944 8.45757 17.4421 8.45757C16.8898 8.45757 16.4421 8.00985 16.4421 7.45757Z" fill="black"/>
<path fill-rule="evenodd" clip-rule="evenodd" d="M12.4421 7.70757C9.81873 7.70757 7.69208 9.83421 7.69208 12.4576C7.69208 15.0809 9.81873 17.2076 12.4421 17.2076C15.0654 17.2076 17.1921 15.0809 17.1921 12.4576C17.1921 9.83421 15.0654 7.70757 12.4421 7.70757ZM9.19208 12.4576C9.19208 10.6626 10.6472 9.20757 12.4421 9.20757C14.237 9.20757 15.6921 10.6626 15.6921 12.4576C15.6921 14.2525 14.237 15.7076 12.4421 15.7076C10.6472 15.7076 9.19208 14.2525 9.19208 12.4576Z" fill="black"/>
<path fill-rule="evenodd" clip-rule="evenodd" d="M17.7003 3.29058C14.2338 2.90314 10.6504 2.90314 7.18385 3.29058C5.17179 3.51546 3.54746 5.10047 3.3109 7.123C2.89637 10.6673 2.89637 14.2478 3.3109 17.7921C3.54746 19.8147 5.17179 21.3997 7.18385 21.6245C10.6504 22.012 14.2338 22.012 17.7003 21.6245C19.7124 21.3997 21.3367 19.8147 21.5733 17.7921C21.9878 14.2478 21.9878 10.6673 21.5733 7.123C21.3367 5.10047 19.7124 3.51546 17.7003 3.29058ZM7.35046 4.7813C10.7063 4.40623 14.1779 4.40623 17.5337 4.7813C18.8638 4.92996 19.9293 5.97957 20.0834 7.29725C20.4844 10.7258 20.4844 14.1894 20.0834 17.6179C19.9293 18.9356 18.8638 19.9852 17.5337 20.1338C14.1779 20.5089 10.7063 20.5089 7.35046 20.1338C6.02035 19.9852 4.95486 18.9356 4.80075 17.6179C4.39975 14.1894 4.39975 10.7258 4.80075 7.29725C4.95486 5.97957 6.02035 4.92996 7.35046 4.7813Z" fill="black"/>
</svg>
