<svg width="24" height="24" viewBox="0 0 24 24" fill="none" xmlns="http://www.w3.org/2000/svg">
<path fill-rule="evenodd" clip-rule="evenodd" d="M23.155 17.115C22.6111 16.0195 21.8944 15.0188 21.0325 14.1513C20.7392 13.8103 20.3953 13.4738 20.1268 13.2112L20.0893 13.1745C19.9508 13.0389 19.8364 12.9264 19.7428 12.8295C20.9213 11.1907 21.93 9.43595 22.753 7.59222L22.7862 7.51783L22.8095 7.43976C22.9176 7.07687 23.0422 6.3868 22.6015 5.76317C22.146 5.11859 21.4166 5.00234 20.9282 5.00234H18.6811C18.2127 4.98087 17.7488 5.10751 17.3558 5.36498C16.9598 5.62439 16.6569 6.00278 16.4902 6.4451C16.0063 7.59779 15.4008 8.6942 14.6847 9.71598V7.08269C14.6847 6.7423 14.6527 6.17289 14.2882 5.69229C13.8518 5.11685 13.2207 5.00234 12.7826 5.00234H9.21708C8.75771 4.99172 8.31094 5.15597 7.9676 5.46259C7.616 5.77659 7.40052 6.21521 7.36687 6.68543L7.36369 6.72997V6.77463C7.36369 7.26011 7.55606 7.61822 7.70975 7.84344C7.77856 7.94427 7.85216 8.03606 7.89865 8.09403L7.90938 8.10741C7.95895 8.16923 7.99204 8.21049 8.02525 8.25566C8.1126 8.37448 8.23824 8.55768 8.27379 9.03174V10.5047C7.6591 9.49423 7.01066 8.14957 6.52276 6.71344L6.51527 6.6914L6.50697 6.66965C6.38532 6.35103 6.1902 5.88743 5.79941 5.53266C5.34288 5.11821 4.8029 5.00234 4.31182 5.00234H2.03187C1.53506 5.00234 0.936134 5.11857 0.489237 5.58999C0.049773 6.05358 0 6.60907 0 6.90442V7.03755L0.0280389 7.16769C0.659544 10.0988 1.96076 12.8437 3.82946 15.1877C4.67668 16.5237 5.82468 17.6436 7.18213 18.4575C8.56124 19.2845 10.1171 19.7719 11.7215 19.8797L11.7633 19.8825H11.8053C12.5311 19.8825 13.2878 19.8199 13.8568 19.4407C14.6244 18.9292 14.6847 18.1436 14.6847 17.7521V16.6142C14.8817 16.7734 15.1261 16.9878 15.4253 17.2759C15.787 17.6379 16.075 17.9516 16.322 18.2254L16.4538 18.372L16.4546 18.3728C16.6464 18.5864 16.8352 18.7967 17.0071 18.9695C17.2232 19.1867 17.4896 19.4261 17.8245 19.6029C18.1871 19.7944 18.5677 19.881 18.972 19.881H21.2535C21.7341 19.881 22.4235 19.7673 22.9082 19.2054C23.4364 18.593 23.3961 17.8424 23.23 17.303L23.2001 17.206L23.155 17.115ZM17.4357 17.2206C17.1789 16.9359 16.8692 16.5984 16.4778 16.2071L16.4746 16.2039C15.1185 14.8964 14.4848 14.6686 14.0368 14.6686C13.7985 14.6686 13.5348 14.6954 13.3637 14.9085C13.2829 15.0091 13.2405 15.1305 13.2167 15.257C13.1929 15.3833 13.1847 15.5316 13.1847 15.7005V17.7521C13.1847 18.0069 13.1428 18.1139 13.025 18.1925C12.868 18.2971 12.5325 18.3819 11.8137 18.3825C10.4493 18.2895 9.12641 17.8744 7.95349 17.1711C6.77817 16.4664 5.78709 15.4925 5.06187 14.3297L5.05398 14.3171L5.04464 14.3054C3.30337 12.1381 2.09003 9.59571 1.5003 6.8791C1.5035 6.74814 1.53187 6.67045 1.57784 6.62195C1.62521 6.57198 1.73999 6.50234 2.03187 6.50234H4.31182C4.56544 6.50234 4.6967 6.55751 4.79117 6.64327C4.89827 6.7405 4.99116 6.90561 5.10401 7.20042C5.66362 8.8464 6.42038 10.3857 7.137 11.5175C7.49518 12.0832 7.84769 12.5541 8.16529 12.8868C8.32383 13.053 8.47932 13.1906 8.6277 13.2885C8.77132 13.3832 8.93414 13.4579 9.10158 13.4579C9.18994 13.4579 9.29328 13.4488 9.39279 13.4047C9.49983 13.3574 9.58291 13.2784 9.64158 13.1725C9.74536 12.9853 9.77379 12.708 9.77379 12.3447V8.98099L9.77329 8.9731C9.72146 8.15476 9.47439 7.69443 9.23381 7.36718C9.18108 7.29546 9.12909 7.23068 9.08359 7.17399L9.07113 7.15846C9.02117 7.09616 8.98142 7.04582 8.94876 6.99795C8.88891 6.91024 8.86571 6.84909 8.86381 6.78356C8.87162 6.70578 8.90828 6.63361 8.96675 6.58139C9.02744 6.52719 9.10686 6.49897 9.18816 6.50234H12.7826C12.9887 6.50234 13.0581 6.55262 13.093 6.59868C13.1423 6.6637 13.1847 6.79893 13.1847 7.08269V11.6113C13.1847 12.1492 13.4327 12.5134 13.7928 12.5134C14.2072 12.5134 14.5059 12.262 15.0283 11.7396L15.037 11.7309L15.0448 11.7213C16.2156 10.2936 17.1725 8.70298 17.8847 6.99943L17.8892 6.98666C17.9428 6.83613 18.0441 6.70726 18.1778 6.6197C18.3114 6.53215 18.47 6.49072 18.6294 6.50175L18.6381 6.50234H20.9282C21.2405 6.50234 21.3433 6.58183 21.3765 6.62884C21.4118 6.67885 21.4364 6.78604 21.3764 6.99625C20.5553 8.83266 19.5399 10.5758 18.348 12.1964L18.3405 12.2078C18.2248 12.3848 18.0979 12.5806 18.0795 12.8054C18.0598 13.0468 18.1643 13.2663 18.347 13.5015C18.4802 13.6984 18.7549 13.9673 19.0336 14.2401L19.0599 14.2658C19.3521 14.5518 19.6686 14.8616 19.9227 15.1616L19.9295 15.1695L19.9369 15.1769C20.6944 15.9325 21.3243 16.806 21.802 17.7632C21.8783 18.0238 21.8316 18.157 21.7723 18.2257C21.703 18.3061 21.5476 18.381 21.2535 18.381H18.972C18.7938 18.381 18.6563 18.3459 18.5249 18.2765C18.388 18.2042 18.2472 18.0892 18.0706 17.9117C17.9284 17.7687 17.773 17.5957 17.5834 17.3848C17.5364 17.3325 17.4873 17.2777 17.4357 17.2206Z" fill="black"/>
</svg>
